STARTFONT 2.1
COMMENT This font was automatically resized by bdfresize-1.5
COMMENT   mag_x = 20/16, mag_y = 20/16, blackness = 3
FONT -zevv-peep-Medium-R-Normal--20-175-75-75-C-100-ISO8859-15
SIZE 20 75 75
FONTBOUNDINGBOX 10 20 0 -4
STARTPROPERTIES 29
FONTNAME_REGISTRY ""
FOUNDRY "zevv"
FAMILY_NAME "peep"
WEIGHT_NAME "Medium"
SLANT "R"
SETWIDTH_NAME "Normal"
ADD_STYLE_NAME ""
PIXEL_SIZE 20
POINT_SIZE 175
RESOLUTION_X 75
RESOLUTION_Y 75
SPACING "C"
AVERAGE_WIDTH 100
CHARSET_REGISTRY "ISO8859"
CHARSET_ENCODING "15"
COPYRIGHT "Zevv"
WEIGHT 100
RESOLUTION 75
X_HEIGHT 7
FIGURE_WIDTH 8
QUAD_WIDTH 8
FONT_ASCENT 17
FONT_DESCENT 4
RELATIVE_WEIGHT 50
RELATIVE_SETWIDTH 50
CAP_HEIGHT 10
UNDERLINE_POSITION -2
UNDERLINE_THICKNESS 1
_GBDFED_INFO "Edited with gbdfed 1.5."
ENDPROPERTIES
CHARS 192
STARTCHAR U+00a4 currency sign
ENCODING 164
SWIDTH 480 0
DWIDTH 10 0
BBX 10 20 0 -4
BITMAP
0000
0000
0700
0880
1040
1000
1000
3F80
1000
7F00
1000
1000
1040
0880
0700
0000
0000
0000
0000
0000
ENDCHAR
STARTCHAR U+0053 latin capital letter S
ENCODING 166
SWIDTH 480 0
DWIDTH 10 0
BBX 10 20 0 -4
BITMAP
0000
1100
0A00
0400
0000
1F00
2080
2000
2000
2000
1F00
0080
0080
0080
2080
1F00
0000
0000
0000
0000
ENDCHAR
STARTCHAR U+0053 latin capital letter S
ENCODING 168
SWIDTH 480 0
DWIDTH 10 0
BBX 10 20 0 -4
BITMAP
0000
0000
0000
1100
0A00
0400
0000
1F00
2080
2000
2000
1F00
0080
0080
2080
1F00
0000
0000
0000
0000
ENDCHAR
STARTCHAR U+005a latin capital letter Z
ENCODING 180
SWIDTH 480 0
DWIDTH 10 0
BBX 10 20 0 -4
BITMAP
0000
0000
1100
0A00
0400
0000
3F80
0080
0100
0200
0400
0400
0800
1000
2000
3F80
0000
0000
0000
0000
ENDCHAR
STARTCHAR U+007a latin small letter z
ENCODING 184
SWIDTH 480 0
DWIDTH 10 0
BBX 10 20 0 -4
BITMAP
0000
0000
0000
1100
0A00
0400
0000
3F80
0080
0100
0200
0400
0800
1000
2000
3F80
0000
0000
0000
0000
ENDCHAR
STARTCHAR U+0020 space
ENCODING 32
SWIDTH 480 0
DWIDTH 10 0
BBX 10 21 0 -5
BITMAP
0000
0000
0000
0000
0000
0000
0000
0000
0000
0000
0000
0000
0000
0000
0000
0000
0000
0000
0000
0000
0000
ENDCHAR
STARTCHAR U+0021 exclamation mark
ENCODING 33
SWIDTH 480 0
DWIDTH 10 0
BBX 10 21 0 -5
BITMAP
0000
0000
0000
0800
0800
0800
0800
0800
0800
0800
0800
0800
0000
0000
0800
0800
0000
0000
0000
0000
0000
ENDCHAR
STARTCHAR U+0022 quotation mark
ENCODING 34
SWIDTH 480 0
DWIDTH 10 0
BBX 10 21 0 -5
BITMAP
0000
0000
0000
1100
1100
1100
1100
0000
0000
0000
0000
0000
0000
0000
0000
0000
0000
0000
0000
0000
0000
ENDCHAR
STARTCHAR U+0023 number sign
ENCODING 35
SWIDTH 480 0
DWIDTH 10 0
BBX 10 21 0 -5
BITMAP
0000
0000
0000
0000
0880
0880
0880
3FC0
1100
1100
1100
7F80
2200
2200
2200
0000
0000
0000
0000
0000
0000
ENDCHAR
STARTCHAR U+0073 latin small letter s
ENCODING 36
SWIDTH 480 0
DWIDTH 10 0
BBX 10 21 0 -5
BITMAP
0000
0000
0000
0000
0000
0400
0400
1F00
2480
2400
2400
1F00
0480
0480
2480
1F00
0400
0400
0000
0000
0000
ENDCHAR
STARTCHAR U+0025 percent sign
ENCODING 37
SWIDTH 480 0
DWIDTH 10 0
BBX 10 21 0 -5
BITMAP
0000
0000
0000
1080
2900
2900
2A00
1200
0400
0400
0800
0900
1280
1280
2280
2100
0000
0000
0000
0000
0000
ENDCHAR
STARTCHAR U+0026 ampersand
ENCODING 38
SWIDTH 480 0
DWIDTH 10 0
BBX 10 21 0 -5
BITMAP
0000
0000
0000
0000
0000
1C00
2200
2200
2200
1C00
1800
2480
2300
2100
2300
1C80
0000
0000
0000
0000
0000
ENDCHAR
STARTCHAR U+0022 quotation mark
ENCODING 39
SWIDTH 480 0
DWIDTH 10 0
BBX 10 21 0 -5
BITMAP
0000
0000
0000
0400
0400
0400
0400
0000
0000
0000
0000
0000
0000
0000
0000
0000
0000
0000
0000
0000
0000
ENDCHAR
STARTCHAR U+0028 left parenthesis
ENCODING 40
SWIDTH 480 0
DWIDTH 10 0
BBX 10 21 0 -5
BITMAP
0000
0000
0080
0100
0200
0400
0400
0800
0800
0800
0800
0800
0800
0800
0400
0400
0200
0100
0080
0000
0000
ENDCHAR
STARTCHAR U+0029 right parenthesis
ENCODING 41
SWIDTH 480 0
DWIDTH 10 0
BBX 10 21 0 -5
BITMAP
0000
0000
2000
1000
0800
0400
0400
0200
0200
0200
0200
0200
0200
0200
0400
0400
0800
1000
2000
0000
0000
ENDCHAR
STARTCHAR U+002a asterisk
ENCODING 42
SWIDTH 480 0
DWIDTH 10 0
BBX 10 21 0 -5
BITMAP
0000
0000
0000
0000
0000
0000
0800
0800
6B00
1C00
0C00
1200
2100
0000
0000
0000
0000
0000
0000
0000
0000
ENDCHAR
STARTCHAR U+002b plus sign
ENCODING 43
SWIDTH 480 0
DWIDTH 10 0
BBX 10 21 0 -5
BITMAP
0000
0000
0000
0000
0000
0000
0400
0400
0400
0400
7FC0
0400
0400
0400
0400
0000
0000
0000
0000
0000
0000
ENDCHAR
STARTCHAR U+003a colon
ENCODING 44
SWIDTH 480 0
DWIDTH 10 0
BBX 10 21 0 -5
BITMAP
0000
0000
0000
0000
0000
0000
0000
0000
0000
0000
0000
0000
0000
0000
0C00
0C00
1800
3000
0000
0000
0000
ENDCHAR
STARTCHAR U+002d hyphen-minus
ENCODING 45
SWIDTH 480 0
DWIDTH 10 0
BBX 10 21 0 -5
BITMAP
0000
0000
0000
0000
0000
0000
0000
0000
0000
0000
3F80
0000
0000
0000
0000
0000
0000
0000
0000
0000
0000
ENDCHAR
STARTCHAR U+002e period
ENCODING 46
SWIDTH 480 0
DWIDTH 10 0
BBX 10 21 0 -5
BITMAP
0000
0000
0000
0000
0000
0000
0000
0000
0000
0000
0000
0000
0000
0000
0C00
0C00
0000
0000
0000
0000
0000
ENDCHAR
STARTCHAR U+002f forward slash
ENCODING 47
SWIDTH 480 0
DWIDTH 10 0
BBX 10 21 0 -5
BITMAP
0000
0000
0000
0080
0080
0100
0100
0200
0200
0400
0400
0800
0800
1000
1000
2000
2000
0000
0000
0000
0000
ENDCHAR
STARTCHAR U+0030 digit zero
ENCODING 48
SWIDTH 480 0
DWIDTH 10 0
BBX 10 21 0 -5
BITMAP
0000
0000
0000
0E00
1100
2080
2080
2280
2280
2480
2880
2880
2080
2080
1100
0E00
0000
0000
0000
0000
0000
ENDCHAR
STARTCHAR U+0031 digit one
ENCODING 49
SWIDTH 480 0
DWIDTH 10 0
BBX 10 21 0 -5
BITMAP
0000
0000
0000
0400
0C00
1400
2400
0400
0400
0400
0400
0400
0400
0400
0400
0400
0000
0000
0000
0000
0000
ENDCHAR
STARTCHAR U+0032 digit two
ENCODING 50
SWIDTH 480 0
DWIDTH 10 0
BBX 10 21 0 -5
BITMAP
0000
0000
0000
0E00
1100
2080
2080
0080
0100
0200
0400
0800
1000
2000
2000
3F80
0000
0000
0000
0000
0000
ENDCHAR
STARTCHAR U+0033 digit three
ENCODING 51
SWIDTH 480 0
DWIDTH 10 0
BBX 10 21 0 -5
BITMAP
0000
0000
0000
0E00
1100
2080
0080
0080
0100
0E00
0100
0080
2080
2080
1100
0E00
0000
0000
0000
0000
0000
ENDCHAR
STARTCHAR U+0034 digit four
ENCODING 52
SWIDTH 480 0
DWIDTH 10 0
BBX 10 21 0 -5
BITMAP
0000
0000
0000
0300
0500
0500
0900
0900
1100
1100
2100
3F80
0100
0100
0100
0100
0000
0000
0000
0000
0000
ENDCHAR
STARTCHAR U+0035 digit five
ENCODING 53
SWIDTH 480 0
DWIDTH 10 0
BBX 10 21 0 -5
BITMAP
0000
0000
0000
3F80
2000
2000
2000
2E00
3100
0080
0080
0080
2080
2080
1100
0E00
0000
0000
0000
0000
0000
ENDCHAR
STARTCHAR U+0036 digit six
ENCODING 54
SWIDTH 480 0
DWIDTH 10 0
BBX 10 21 0 -5
BITMAP
0000
0000
0000
0E00
1100
2080
2000
2000
2E00
3100
2080
2080
2080
2080
1100
0E00
0000
0000
0000
0000
0000
ENDCHAR
STARTCHAR U+0037 digit seven
ENCODING 55
SWIDTH 480 0
DWIDTH 10 0
BBX 10 21 0 -5
BITMAP
0000
0000
0000
3F80
0080
0100
0100
0200
0200
0400
0400
0800
0800
0800
1000
1000
0000
0000
0000
0000
0000
ENDCHAR
STARTCHAR U+0038 digit eight
ENCODING 56
SWIDTH 480 0
DWIDTH 10 0
BBX 10 21 0 -5
BITMAP
0000
0000
0000
0E00
1100
2080
2080
2080
1100
0E00
1100
2080
2080
2080
1100
0E00
0000
0000
0000
0000
0000
ENDCHAR
STARTCHAR U+0039 digit nine
ENCODING 57
SWIDTH 480 0
DWIDTH 10 0
BBX 10 21 0 -5
BITMAP
0000
0000
0000
0E00
1100
2080
2080
2080
2080
1180
0E80
0080
0080
0080
2100
1E00
0000
0000
0000
0000
0000
ENDCHAR
STARTCHAR U+003a colon
ENCODING 58
SWIDTH 480 0
DWIDTH 10 0
BBX 10 21 0 -5
BITMAP
0000
0000
0000
0000
0000
0000
0000
0C00
0C00
0000
0000
0000
0000
0000
0C00
0C00
0000
0000
0000
0000
0000
ENDCHAR
STARTCHAR U+003a colon
ENCODING 59
SWIDTH 480 0
DWIDTH 10 0
BBX 10 21 0 -5
BITMAP
0000
0000
0000
0000
0000
0000
0000
0C00
0C00
0000
0000
0000
0000
0000
0C00
0C00
1800
3000
0000
0000
0000
ENDCHAR
STARTCHAR U+003c less-than sign
ENCODING 60
SWIDTH 480 0
DWIDTH 10 0
BBX 10 21 0 -5
BITMAP
0000
0000
0000
0000
0000
0100
0200
0400
0800
1000
2000
1000
0800
0400
0200
0100
0000
0000
0000
0000
0000
ENDCHAR
STARTCHAR U+003d equals sign
ENCODING 61
SWIDTH 480 0
DWIDTH 10 0
BBX 10 21 0 -5
BITMAP
0000
0000
0000
0000
0000
0000
0000
0000
3F80
0000
0000
0000
3F80
0000
0000
0000
0000
0000
0000
0000
0000
ENDCHAR
STARTCHAR U+003e greater-than sign
ENCODING 62
SWIDTH 480 0
DWIDTH 10 0
BBX 10 21 0 -5
BITMAP
0000
0000
0000
0000
0000
1000
0800
0400
0200
0100
0080
0100
0200
0400
0800
1000
0000
0000
0000
0000
0000
ENDCHAR
STARTCHAR U+003f question mark
ENCODING 63
SWIDTH 480 0
DWIDTH 10 0
BBX 10 21 0 -5
BITMAP
0000
0000
0000
1E00
2100
0080
0080
0100
0200
0400
0800
0800
0000
0000
0800
0800
0000
0000
0000
0000
0000
ENDCHAR
STARTCHAR U+0040 at sign
ENCODING 64
SWIDTH 480 0
DWIDTH 10 0
BBX 10 21 0 -5
BITMAP
0000
0000
0000
0E00
1100
2080
2780
2880
2880
2880
2880
2980
2680
2000
1000
0F00
0000
0000
0000
0000
0000
ENDCHAR
STARTCHAR U+0041 latin capital letter A
ENCODING 65
SWIDTH 480 0
DWIDTH 10 0
BBX 10 21 0 -5
BITMAP
0000
0000
0000
0E00
1100
2080
2080
2080
2080
2080
3F80
2080
2080
2080
2080
2080
0000
0000
0000
0000
0000
ENDCHAR
STARTCHAR U+0042 latin capital letter B
ENCODING 66
SWIDTH 480 0
DWIDTH 10 0
BBX 10 21 0 -5
BITMAP
0000
0000
0000
3C00
2200
2100
2100
2100
2100
3E00
2100
2080
2080
2080
2100
3E00
0000
0000
0000
0000
0000
ENDCHAR
STARTCHAR U+0043 latin capital letter C
ENCODING 67
SWIDTH 480 0
DWIDTH 10 0
BBX 10 21 0 -5
BITMAP
0000
0000
0000
0E00
1100
2080
2080
2000
2000
2000
2000
2000
2080
2080
1100
0E00
0000
0000
0000
0000
0000
ENDCHAR
STARTCHAR U+0044 latin capital letter D
ENCODING 68
SWIDTH 480 0
DWIDTH 10 0
BBX 10 21 0 -5
BITMAP
0000
0000
0000
3C00
2200
2100
2080
2080
2080
2080
2080
2080
2080
2100
2200
3C00
0000
0000
0000
0000
0000
ENDCHAR
STARTCHAR U+0045 latin capital letter E
ENCODING 69
SWIDTH 480 0
DWIDTH 10 0
BBX 10 21 0 -5
BITMAP
0000
0000
0000
3F80
2000
2000
2000
2000
2000
3F00
2000
2000
2000
2000
2000
3F80
0000
0000
0000
0000
0000
ENDCHAR
STARTCHAR U+0046 latin capital letter F
ENCODING 70
SWIDTH 480 0
DWIDTH 10 0
BBX 10 21 0 -5
BITMAP
0000
0000
0000
7F80
4000
4000
4000
4000
7E00
4000
4000
4000
4000
4000
4000
4000
0000
0000
0000
0000
0000
ENDCHAR
STARTCHAR U+0047 latin capital letter G
ENCODING 71
SWIDTH 480 0
DWIDTH 10 0
BBX 10 21 0 -5
BITMAP
0000
0000
0000
0E00
1100
2080
2080
2000
2000
2000
2780
2080
2080
2080
1080
0F00
0000
0000
0000
0000
0000
ENDCHAR
STARTCHAR U+0048 latin capital letter H
ENCODING 72
SWIDTH 480 0
DWIDTH 10 0
BBX 10 21 0 -5
BITMAP
0000
0000
0000
2080
2080
2080
2080
2080
2080
3F80
2080
2080
2080
2080
2080
2080
0000
0000
0000
0000
0000
ENDCHAR
STARTCHAR U+0049 latin capital letter I
ENCODING 73
SWIDTH 480 0
DWIDTH 10 0
BBX 10 21 0 -5
BITMAP
0000
0000
0000
1F00
0400
0400
0400
0400
0400
0400
0400
0400
0400
0400
0400
1F00
0000
0000
0000
0000
0000
ENDCHAR
STARTCHAR U+004a latin capital letter J
ENCODING 74
SWIDTH 480 0
DWIDTH 10 0
BBX 10 21 0 -5
BITMAP
0000
0000
0000
0780
0080
0080
0080
0080
0080
0080
0080
0080
2080
2080
1100
0E00
0000
0000
0000
0000
0000
ENDCHAR
STARTCHAR U+004b latin capital letter K
ENCODING 75
SWIDTH 480 0
DWIDTH 10 0
BBX 10 21 0 -5
BITMAP
0000
0000
0000
2080
2100
2200
2400
2800
3800
2400
2400
2200
2200
2100
2100
2080
0000
0000
0000
0000
0000
ENDCHAR
STARTCHAR U+004c latin capital letter L
ENCODING 76
SWIDTH 480 0
DWIDTH 10 0
BBX 10 21 0 -5
BITMAP
0000
0000
0000
2000
2000
2000
2000
2000
2000
2000
2000
2000
2000
2000
2000
3F80
0000
0000
0000
0000
0000
ENDCHAR
STARTCHAR U+004d latin capital letter M
ENCODING 77
SWIDTH 480 0
DWIDTH 10 0
BBX 10 21 0 -5
BITMAP
0000
0000
0000
4040
60C0
60C0
5140
5140
4A40
4A40
4440
4440
4040
4040
4040
4040
0000
0000
0000
0000
0000
ENDCHAR
STARTCHAR U+004e latin capital letter N
ENCODING 78
SWIDTH 480 0
DWIDTH 10 0
BBX 10 21 0 -5
BITMAP
0000
0000
0000
2080
3080
3080
2880
2880
2480
2480
2480
2280
2280
2180
2180
2080
0000
0000
0000
0000
0000
ENDCHAR
STARTCHAR U+004f latin capital letter O
ENCODING 79
SWIDTH 480 0
DWIDTH 10 0
BBX 10 21 0 -5
BITMAP
0000
0000
0000
0E00
1100
2080
2080
2080
2080
2080
2080
2080
2080
2080
1100
0E00
0000
0000
0000
0000
0000
ENDCHAR
STARTCHAR U+0050 latin capital letter P
ENCODING 80
SWIDTH 480 0
DWIDTH 10 0
BBX 10 21 0 -5
BITMAP
0000
0000
0000
3E00
2100
2080
2080
2080
2080
2100
3E00
2000
2000
2000
2000
2000
0000
0000
0000
0000
0000
ENDCHAR
STARTCHAR U+0051 latin capital letter Q
ENCODING 81
SWIDTH 480 0
DWIDTH 10 0
BBX 10 21 0 -5
BITMAP
0000
0000
0000
0E00
1100
2080
2080
2080
2080
2080
2080
2080
2480
2480
1500
0E00
0380
0000
0000
0000
0000
ENDCHAR
STARTCHAR U+0052 latin capital letter R
ENCODING 82
SWIDTH 480 0
DWIDTH 10 0
BBX 10 21 0 -5
BITMAP
0000
0000
0000
3E00
2100
2080
2080
2080
2080
2100
3E00
2800
2400
2200
2100
2080
0000
0000
0000
0000
0000
ENDCHAR
STARTCHAR U+0053 latin capital letter S
ENCODING 83
SWIDTH 480 0
DWIDTH 10 0
BBX 10 21 0 -5
BITMAP
0000
0000
0000
0E00
1100
2080
2000
2000
1000
0E00
0100
0080
0080
2080
1100
0E00
0000
0000
0000
0000
0000
ENDCHAR
STARTCHAR U+0054 latin capital letter T
ENCODING 84
SWIDTH 480 0
DWIDTH 10 0
BBX 10 21 0 -5
BITMAP
0000
0000
0000
3F80
0400
0400
0400
0400
0400
0400
0400
0400
0400
0400
0400
0400
0000
0000
0000
0000
0000
ENDCHAR
STARTCHAR U+0055 latin capital letter U
ENCODING 85
SWIDTH 480 0
DWIDTH 10 0
BBX 10 21 0 -5
BITMAP
0000
0000
0000
2080
2080
2080
2080
2080
2080
2080
2080
2080
2080
2080
1100
0E00
0000
0000
0000
0000
0000
ENDCHAR
STARTCHAR U+0056 latin capital letter V
ENCODING 86
SWIDTH 480 0
DWIDTH 10 0
BBX 10 21 0 -5
BITMAP
0000
0000
0000
2080
2080
2080
2080
2080
2080
2080
2080
1100
1100
0A00
0A00
0400
0000
0000
0000
0000
0000
ENDCHAR
STARTCHAR U+0057 latin capital letter W
ENCODING 87
SWIDTH 480 0
DWIDTH 10 0
BBX 10 21 0 -5
BITMAP
0000
0000
0000
4040
4040
4040
4040
4040
4440
4440
4440
4A40
2A80
2A80
1100
1100
0000
0000
0000
0000
0000
ENDCHAR
STARTCHAR U+0058 latin capital letter X
ENCODING 88
SWIDTH 480 0
DWIDTH 10 0
BBX 10 21 0 -5
BITMAP
0000
0000
0000
2080
2080
2080
1100
1100
0E00
0400
0E00
1100
1100
2080
2080
2080
0000
0000
0000
0000
0000
ENDCHAR
STARTCHAR U+0059 latin capital letter Y
ENCODING 89
SWIDTH 480 0
DWIDTH 10 0
BBX 10 21 0 -5
BITMAP
0000
0000
0000
2080
2080
2080
2080
2080
1100
0A00
0400
0400
0400
0400
0400
0400
0000
0000
0000
0000
0000
ENDCHAR
STARTCHAR U+005a latin capital letter Z
ENCODING 90
SWIDTH 480 0
DWIDTH 10 0
BBX 10 21 0 -5
BITMAP
0000
0000
0000
3F80
0080
0100
0100
0200
0200
0400
0800
0800
1000
1000
2000
3F80
0000
0000
0000
0000
0000
ENDCHAR
STARTCHAR U+005b left square bracket
ENCODING 91
SWIDTH 480 0
DWIDTH 10 0
BBX 10 21 0 -5
BITMAP
0000
0000
0F80
0800
0800
0800
0800
0800
0800
0800
0800
0800
0800
0800
0800
0800
0800
0F80
0000
0000
0000
ENDCHAR
STARTCHAR U+005c backslash
ENCODING 92
SWIDTH 480 0
DWIDTH 10 0
BBX 10 21 0 -5
BITMAP
0000
0000
0000
2000
2000
1000
1000
0800
0800
0400
0400
0200
0200
0100
0100
0080
0080
0000
0000
0000
0000
ENDCHAR
STARTCHAR U+005d right square bracket
ENCODING 93
SWIDTH 480 0
DWIDTH 10 0
BBX 10 21 0 -5
BITMAP
0000
0000
3E00
0200
0200
0200
0200
0200
0200
0200
0200
0200
0200
0200
0200
0200
0200
3E00
0000
0000
0000
ENDCHAR
STARTCHAR U+005e circumflex
ENCODING 94
SWIDTH 480 0
DWIDTH 10 0
BBX 10 21 0 -5
BITMAP
0000
0000
0000
0400
0A00
1100
2080
0000
0000
0000
0000
0000
0000
0000
0000
0000
0000
0000
0000
0000
0000
ENDCHAR
STARTCHAR U+005f underscore
ENCODING 95
SWIDTH 480 0
DWIDTH 10 0
BBX 10 21 0 -5
BITMAP
0000
0000
0000
0000
0000
0000
0000
0000
0000
0000
0000
0000
0000
0000
0000
0000
0000
7F80
0000
0000
0000
ENDCHAR
STARTCHAR U+0060 grave accent
ENCODING 96
SWIDTH 480 0
DWIDTH 10 0
BBX 10 21 0 -5
BITMAP
0000
0000
0000
0C00
0C00
0600
0300
0000
0000
0000
0000
0000
0000
0000
0000
0000
0000
0000
0000
0000
0000
ENDCHAR
STARTCHAR U+0061 latin small letter a
ENCODING 97
SWIDTH 480 0
DWIDTH 10 0
BBX 10 21 0 -5
BITMAP
0000
0000
0000
0000
0000
0000
0000
1F00
0080
0080
1F80
2080
2080
2080
2180
1E80
0000
0000
0000
0000
0000
ENDCHAR
STARTCHAR U+0062 latin small letter b
ENCODING 98
SWIDTH 480 0
DWIDTH 10 0
BBX 10 21 0 -5
BITMAP
0000
0000
0000
2000
2000
2000
2000
2E00
3100
2080
2080
2080
2080
2080
3100
2E00
0000
0000
0000
0000
0000
ENDCHAR
STARTCHAR U+0063 latin small letter c
ENCODING 99
SWIDTH 480 0
DWIDTH 10 0
BBX 10 21 0 -5
BITMAP
0000
0000
0000
0000
0000
0000
0000
0E00
1100
2080
2000
2000
2000
2080
1100
0E00
0000
0000
0000
0000
0000
ENDCHAR
STARTCHAR U+0064 latin small letter d
ENCODING 100
SWIDTH 480 0
DWIDTH 10 0
BBX 10 21 0 -5
BITMAP
0000
0000
0000
0080
0080
0080
0080
0E80
1180
2080
2080
2080
2080
2080
1180
0E80
0000
0000
0000
0000
0000
ENDCHAR
STARTCHAR U+0065 latin small letter e
ENCODING 101
SWIDTH 480 0
DWIDTH 10 0
BBX 10 21 0 -5
BITMAP
0000
0000
0000
0000
0000
0000
0000
0E00
1100
2080
2080
3F80
2000
2000
1080
0F00
0000
0000
0000
0000
0000
ENDCHAR
STARTCHAR U+0066 latin small letter f
ENCODING 102
SWIDTH 480 0
DWIDTH 10 0
BBX 10 21 0 -5
BITMAP
0000
0000
0000
0700
0880
0800
0800
0800
0800
3F00
0800
0800
0800
0800
0800
0800
0000
0000
0000
0000
0000
ENDCHAR
STARTCHAR U+0067 latin small letter g
ENCODING 103
SWIDTH 480 0
DWIDTH 10 0
BBX 10 21 0 -5
BITMAP
0000
0000
0000
0000
0000
0000
0000
0E80
1180
2080
2080
2080
2080
1180
0E80
0080
0080
2080
1100
0E00
0000
ENDCHAR
STARTCHAR U+0068 latin small letter h
ENCODING 104
SWIDTH 480 0
DWIDTH 10 0
BBX 10 21 0 -5
BITMAP
0000
0000
0000
2000
2000
2000
2000
2F00
3080
2080
2080
2080
2080
2080
2080
2080
0000
0000
0000
0000
0000
ENDCHAR
STARTCHAR U+0069 latin small letter i
ENCODING 105
SWIDTH 480 0
DWIDTH 10 0
BBX 10 21 0 -5
BITMAP
0000
0000
0000
0000
0400
0400
0000
1C00
0400
0400
0400
0400
0400
0400
0400
0400
0000
0000
0000
0000
0000
ENDCHAR
STARTCHAR U+006a latin small letter j
ENCODING 106
SWIDTH 480 0
DWIDTH 10 0
BBX 10 21 0 -5
BITMAP
0000
0000
0000
0000
0100
0100
0000
0700
0100
0100
0100
0100
0100
0100
0100
0100
2100
2100
1E00
0000
0000
ENDCHAR
STARTCHAR U+006b latin small letter k
ENCODING 107
SWIDTH 480 0
DWIDTH 10 0
BBX 10 21 0 -5
BITMAP
0000
0000
0000
0000
2000
2000
2000
2100
2200
2400
2800
3800
2400
2200
2100
2080
0000
0000
0000
0000
0000
ENDCHAR
STARTCHAR U+006c latin small letter l
ENCODING 108
SWIDTH 480 0
DWIDTH 10 0
BBX 10 21 0 -5
BITMAP
0000
0000
0000
1000
1000
1000
1000
1000
1000
1000
1000
1000
1000
1000
1000
0E00
0000
0000
0000
0000
0000
ENDCHAR
STARTCHAR U+006d latin small letter m
ENCODING 109
SWIDTH 480 0
DWIDTH 10 0
BBX 10 21 0 -5
BITMAP
0000
0000
0000
0000
0000
0000
0000
7B80
4440
4440
4440
4440
4440
4440
4040
4040
0000
0000
0000
0000
0000
ENDCHAR
STARTCHAR U+006e latin small letter n
ENCODING 110
SWIDTH 480 0
DWIDTH 10 0
BBX 10 21 0 -5
BITMAP
0000
0000
0000
0000
0000
0000
0000
2E00
3100
2080
2080
2080
2080
2080
2080
2080
0000
0000
0000
0000
0000
ENDCHAR
STARTCHAR U+006f latin small letter o
ENCODING 111
SWIDTH 480 0
DWIDTH 10 0
BBX 10 21 0 -5
BITMAP
0000
0000
0000
0000
0000
0000
0000
0E00
1100
2080
2080
2080
2080
2080
1100
0E00
0000
0000
0000
0000
0000
ENDCHAR
STARTCHAR U+0070 latin small letter p
ENCODING 112
SWIDTH 480 0
DWIDTH 10 0
BBX 10 21 0 -5
BITMAP
0000
0000
0000
0000
0000
0000
0000
2E00
3100
2080
2080
2080
2080
3100
2E00
2000
2000
2000
2000
2000
0000
ENDCHAR
STARTCHAR U+0071 latin small letter q
ENCODING 113
SWIDTH 480 0
DWIDTH 10 0
BBX 10 21 0 -5
BITMAP
0000
0000
0000
0000
0000
0000
0000
0E80
1180
2080
2080
2080
2080
1180
0E80
0080
0080
0080
0080
0080
0000
ENDCHAR
STARTCHAR U+0072 latin small letter r
ENCODING 114
SWIDTH 480 0
DWIDTH 10 0
BBX 10 21 0 -5
BITMAP
0000
0000
0000
0000
0000
0000
0000
2E00
3100
2080
2000
2000
2000
2000
2000
2000
0000
0000
0000
0000
0000
ENDCHAR
STARTCHAR U+0073 latin small letter s
ENCODING 115
SWIDTH 480 0
DWIDTH 10 0
BBX 10 21 0 -5
BITMAP
0000
0000
0000
0000
0000
0000
0000
1F00
2080
2000
2000
1F00
0080
0080
2080
1F00
0000
0000
0000
0000
0000
ENDCHAR
STARTCHAR U+0074 latin small letter t
ENCODING 116
SWIDTH 480 0
DWIDTH 10 0
BBX 10 21 0 -5
BITMAP
0000
0000
0000
0000
0800
0800
0800
3F00
0800
0800
0800
0800
0800
0800
0880
0700
0000
0000
0000
0000
0000
ENDCHAR
STARTCHAR U+0075 latin small letter u
ENCODING 117
SWIDTH 480 0
DWIDTH 10 0
BBX 10 21 0 -5
BITMAP
0000
0000
0000
0000
0000
0000
0000
2080
2080
2080
2080
2080
2080
2080
1180
0E80
0000
0000
0000
0000
0000
ENDCHAR
STARTCHAR U+0076 latin small letter v
ENCODING 118
SWIDTH 480 0
DWIDTH 10 0
BBX 10 21 0 -5
BITMAP
0000
0000
0000
0000
0000
0000
0000
2080
2080
2080
2080
1100
1100
0A00
0400
0400
0000
0000
0000
0000
0000
ENDCHAR
STARTCHAR U+0077 latin small letter w
ENCODING 119
SWIDTH 480 0
DWIDTH 10 0
BBX 10 21 0 -5
BITMAP
0000
0000
0000
0000
0000
0000
0000
4040
4440
4440
4440
4440
2A80
2A80
2A80
1100
0000
0000
0000
0000
0000
ENDCHAR
STARTCHAR U+0078 latin small letter x
ENCODING 120
SWIDTH 480 0
DWIDTH 10 0
BBX 10 21 0 -5
BITMAP
0000
0000
0000
0000
0000
0000
0000
2080
2080
1100
0A00
0400
0A00
1100
2080
2080
0000
0000
0000
0000
0000
ENDCHAR
STARTCHAR U+0079 latin small letter y
ENCODING 121
SWIDTH 480 0
DWIDTH 10 0
BBX 10 21 0 -5
BITMAP
0000
0000
0000
0000
0000
0000
0000
2080
2080
2080
2080
2080
2080
1180
0E80
0080
0080
0080
2100
1E00
0000
ENDCHAR
STARTCHAR U+007a latin small letter z
ENCODING 122
SWIDTH 480 0
DWIDTH 10 0
BBX 10 21 0 -5
BITMAP
0000
0000
0000
0000
0000
0000
0000
3F80
0080
0100
0200
0400
0800
1000
2000
3F80
0000
0000
0000
0000
0000
ENDCHAR
STARTCHAR U+007b left curly brace
ENCODING 123
SWIDTH 480 0
DWIDTH 10 0
BBX 10 21 0 -5
BITMAP
0000
0000
0380
0400
0400
0400
0400
0400
0400
0400
3800
0400
0400
0400
0400
0400
0400
0380
0000
0000
0000
ENDCHAR
STARTCHAR U+007c vertical bar
ENCODING 124
SWIDTH 480 0
DWIDTH 10 0
BBX 10 21 0 -5
BITMAP
0000
0000
0800
0800
0800
0800
0800
0800
0800
0800
0800
0800
0800
0800
0800
0800
0800
0000
0000
0000
0000
ENDCHAR
STARTCHAR U+007d right curly brace
ENCODING 125
SWIDTH 480 0
DWIDTH 10 0
BBX 10 21 0 -5
BITMAP
0000
0000
3800
0400
0400
0400
0400
0400
0400
0400
0380
0400
0400
0400
0400
0400
0400
3800
0000
0000
0000
ENDCHAR
STARTCHAR U+007e tilde
ENCODING 126
SWIDTH 480 0
DWIDTH 10 0
BBX 10 21 0 -5
BITMAP
0000
0000
0000
0000
0000
1840
2440
2380
0000
0000
0000
0000
0000
0000
0000
0000
0000
0000
0000
0000
0000
ENDCHAR
STARTCHAR nil
ENCODING 127
SWIDTH 480 0
DWIDTH 10 0
BBX 10 21 0 -5
BITMAP
0000
0000
0000
3F80
2080
2080
2080
2080
2080
2080
2080
2080
2080
2080
2080
2080
2080
2080
3F80
0000
0000
ENDCHAR
STARTCHAR U+00a0 no-break space
ENCODING 160
SWIDTH 480 0
DWIDTH 10 0
BBX 10 21 0 -5
BITMAP
0000
0000
0000
0000
0000
0000
0000
0000
0000
0000
0000
0000
0000
0000
0000
0000
0000
0000
0000
0000
0000
ENDCHAR
STARTCHAR U+00a1 inverted exclamation mark
ENCODING 161
SWIDTH 480 0
DWIDTH 10 0
BBX 10 21 0 -5
BITMAP
0000
0000
0000
0400
0400
0000
0000
0400
0400
0400
0400
0400
0400
0400
0400
0400
0000
0000
0000
0000
0000
ENDCHAR
STARTCHAR U+0063 latin small letter c
ENCODING 162
SWIDTH 480 0
DWIDTH 10 0
BBX 10 21 0 -5
BITMAP
0000
0000
0000
0000
0000
0400
0400
0E00
1500
2480
2400
2400
2400
2480
1500
0E00
0400
0400
0000
0000
0000
ENDCHAR
STARTCHAR U+00a3 pound sign
ENCODING 163
SWIDTH 480 0
DWIDTH 10 0
BBX 10 21 0 -5
BITMAP
0000
0000
0000
0E00
1100
1080
1000
1000
1000
1000
3C00
1000
1000
1000
1000
3F80
0000
0000
0000
0000
0000
ENDCHAR
STARTCHAR U+00a5 yen sign
ENCODING 165
SWIDTH 480 0
DWIDTH 10 0
BBX 10 21 0 -5
BITMAP
0000
0000
0000
0000
1100
1100
0A00
0A00
0400
0400
3F80
0400
3F80
0400
0400
0400
0000
0000
0000
0000
0000
ENDCHAR
STARTCHAR U+00a7 section sign
ENCODING 167
SWIDTH 480 0
DWIDTH 10 0
BBX 10 21 0 -5
BITMAP
0000
0000
0000
0000
1E00
2100
2000
2000
1C00
2200
2100
1100
0E00
0100
0100
2100
1E00
0000
0000
0000
0000
ENDCHAR
STARTCHAR U+00a9 copyright sign
ENCODING 169
SWIDTH 480 0
DWIDTH 10 0
BBX 10 21 0 -5
BITMAP
0000
0000
0F00
1080
2640
2940
2840
2940
2640
1080
0F00
0000
0000
0000
0000
0000
0000
0000
0000
0000
0000
ENDCHAR
STARTCHAR U+00aa feminine ordinal indicator
ENCODING 170
SWIDTH 480 0
DWIDTH 10 0
BBX 10 21 0 -5
BITMAP
0000
0000
0000
1E00
2100
0100
1F00
2100
2100
2300
1D00
0000
3F00
0000
0000
0000
0000
0000
0000
0000
0000
ENDCHAR
STARTCHAR U+00ab left-pointing double angle quotation mark
ENCODING 171
SWIDTH 480 0
DWIDTH 10 0
BBX 10 21 0 -5
BITMAP
0000
0000
0000
0000
0000
0000
0000
0000
0480
0900
1200
2400
1200
0900
0480
0000
0000
0000
0000
0000
0000
ENDCHAR
STARTCHAR U+00ac not sign
ENCODING 172
SWIDTH 480 0
DWIDTH 10 0
BBX 10 21 0 -5
BITMAP
0000
0000
0000
0000
0000
0000
0000
0000
0000
0000
3F80
0080
0080
0080
0000
0000
0000
0000
0000
0000
0000
ENDCHAR
STARTCHAR U+00ad soft hyphen
ENCODING 173
SWIDTH 480 0
DWIDTH 10 0
BBX 10 21 0 -5
BITMAP
0000
0000
0000
0000
0000
0000
0000
0000
0000
0000
3F00
0000
0000
0000
0000
0000
0000
0000
0000
0000
0000
ENDCHAR
STARTCHAR U+00a9 copyright sign
ENCODING 174
SWIDTH 480 0
DWIDTH 10 0
BBX 10 21 0 -5
BITMAP
0000
0000
0F00
1080
2A40
2D40
2840
2840
2840
1080
0F00
0000
0000
0000
0000
0000
0000
0000
0000
0000
0000
ENDCHAR
STARTCHAR U+00af macron
ENCODING 175
SWIDTH 480 0
DWIDTH 10 0
BBX 10 21 0 -5
BITMAP
0000
0000
0000
3F80
0000
0000
0000
0000
0000
0000
0000
0000
0000
0000
0000
0000
0000
0000
0000
0000
0000
ENDCHAR
STARTCHAR U+00b0 degree sign
ENCODING 176
SWIDTH 480 0
DWIDTH 10 0
BBX 10 21 0 -5
BITMAP
0000
0000
0000
1E00
2100
2100
2100
2100
1E00
0000
0000
0000
0000
0000
0000
0000
0000
0000
0000
0000
0000
ENDCHAR
STARTCHAR U+00b1 plus-minus sign
ENCODING 177
SWIDTH 480 0
DWIDTH 10 0
BBX 10 21 0 -5
BITMAP
0000
0000
0000
0000
0000
0000
0000
0400
0400
0400
3F80
0400
0400
0400
0000
0000
3F80
0000
0000
0000
0000
ENDCHAR
STARTCHAR U+00b2 superscript two
ENCODING 178
SWIDTH 480 0
DWIDTH 10 0
BBX 10 21 0 -5
BITMAP
0000
0000
1C00
2200
2200
0400
0800
1000
2000
3E00
0000
0000
0000
0000
0000
0000
0000
0000
0000
0000
0000
ENDCHAR
STARTCHAR U+00b2 superscript two
ENCODING 179
SWIDTH 480 0
DWIDTH 10 0
BBX 10 21 0 -5
BITMAP
0000
0000
1C00
2200
0200
0C00
0200
2200
2200
1C00
0000
0000
0000
0000
0000
0000
0000
0000
0000
0000
0000
ENDCHAR
STARTCHAR U+00b5 micro sign
ENCODING 181
SWIDTH 480 0
DWIDTH 10 0
BBX 10 21 0 -5
BITMAP
0000
0000
0000
0000
0000
0000
0000
2100
2100
2100
2100
2100
2100
3300
2C80
2000
2000
0000
0000
0000
0000
ENDCHAR
STARTCHAR U+00b6 pilcrow sign
ENCODING 182
SWIDTH 480 0
DWIDTH 10 0
BBX 10 21 0 -5
BITMAP
0000
0000
0000
1F80
2480
2480
2480
2480
2480
1C80
0480
0480
0480
0480
0480
0480
0000
0000
0000
0000
0000
ENDCHAR
STARTCHAR U+00b7 middle dot
ENCODING 183
SWIDTH 480 0
DWIDTH 10 0
BBX 10 21 0 -5
BITMAP
0000
0000
0000
0000
0000
0000
0000
0000
0000
0C00
0C00
0000
0000
0000
0000
0000
0000
0000
0000
0000
0000
ENDCHAR
STARTCHAR U+00b9 superscript one
ENCODING 185
SWIDTH 480 0
DWIDTH 10 0
BBX 10 21 0 -5
BITMAP
0000
0000
0000
0400
0C00
1400
0400
0400
0400
0400
0000
0000
0000
0000
0000
0000
0000
0000
0000
0000
0000
ENDCHAR
STARTCHAR U+00b0 degree sign
ENCODING 186
SWIDTH 480 0
DWIDTH 10 0
BBX 10 21 0 -5
BITMAP
0000
0000
0000
1E00
2100
2100
2100
2100
1E00
0000
3F00
0000
0000
0000
0000
0000
0000
0000
0000
0000
0000
ENDCHAR
STARTCHAR U+00bb right-pointing double angle quotation mark
ENCODING 187
SWIDTH 480 0
DWIDTH 10 0
BBX 10 21 0 -5
BITMAP
0000
0000
0000
0000
0000
0000
0000
0000
2400
1200
0900
0480
0900
1200
2400
0000
0000
0000
0000
0000
0000
ENDCHAR
STARTCHAR U+00bd vulgar fraction one half
ENCODING 188
SWIDTH 480 0
DWIDTH 10 0
BBX 10 21 0 -5
BITMAP
0000
0000
1000
3000
1000
1000
1000
1000
1000
1000
0100
0300
0500
0900
0F80
0100
0100
0000
0000
0000
0000
ENDCHAR
STARTCHAR U+00bd vulgar fraction one half
ENCODING 189
SWIDTH 480 0
DWIDTH 10 0
BBX 10 21 0 -5
BITMAP
0000
0000
1000
3000
1000
1000
1000
1000
1000
1000
0300
0480
0080
0100
0200
0400
0780
0000
0000
0000
0000
ENDCHAR
STARTCHAR U+00bd vulgar fraction one half
ENCODING 190
SWIDTH 480 0
DWIDTH 10 0
BBX 10 21 0 -5
BITMAP
0000
0000
1800
2400
0400
0800
0400
2400
1800
0000
0100
0300
0500
0900
0F80
0100
0100
0000
0000
0000
0000
ENDCHAR
STARTCHAR U+003f question mark
ENCODING 191
SWIDTH 480 0
DWIDTH 10 0
BBX 10 21 0 -5
BITMAP
0000
0000
0000
0200
0200
0000
0000
0200
0200
0400
0800
1000
2000
2000
1080
0F00
0000
0000
0000
0000
0000
ENDCHAR
STARTCHAR U+0041 latin capital letter A
ENCODING 192
SWIDTH 480 0
DWIDTH 10 0
BBX 10 21 0 -5
BITMAP
0000
1000
0800
0400
0000
0400
0A00
1100
2080
2080
3F80
2080
2080
2080
2080
2080
0000
0000
0000
0000
0000
ENDCHAR
STARTCHAR U+0041 latin capital letter A
ENCODING 193
SWIDTH 480 0
DWIDTH 10 0
BBX 10 21 0 -5
BITMAP
0000
0100
0200
0400
0000
0400
0A00
1100
2080
2080
3F80
2080
2080
2080
2080
2080
0000
0000
0000
0000
0000
ENDCHAR
STARTCHAR U+0041 latin capital letter A
ENCODING 194
SWIDTH 480 0
DWIDTH 10 0
BBX 10 21 0 -5
BITMAP
0000
0400
0A00
1100
0000
0400
0A00
1100
2080
2080
3F80
2080
2080
2080
2080
2080
0000
0000
0000
0000
0000
ENDCHAR
STARTCHAR U+0041 latin capital letter A
ENCODING 195
SWIDTH 480 0
DWIDTH 10 0
BBX 10 21 0 -5
BITMAP
0000
0000
2600
1900
0000
0400
0A00
1100
2080
2080
3F80
2080
2080
2080
2080
2080
0000
0000
0000
0000
0000
ENDCHAR
STARTCHAR U+0041 latin capital letter A
ENCODING 196
SWIDTH 480 0
DWIDTH 10 0
BBX 10 21 0 -5
BITMAP
0000
0000
0A00
0A00
0000
0400
0A00
1100
2080
2080
3F80
2080
2080
2080
2080
2080
0000
0000
0000
0000
0000
ENDCHAR
STARTCHAR U+0041 latin capital letter A
ENCODING 197
SWIDTH 480 0
DWIDTH 10 0
BBX 10 21 0 -5
BITMAP
0000
0400
0A00
0400
0000
0400
0A00
1100
2080
2080
3F80
2080
2080
2080
2080
2080
0000
0000
0000
0000
0000
ENDCHAR
STARTCHAR U+00c6 latin capital ligature AE
ENCODING 198
SWIDTH 480 0
DWIDTH 10 0
BBX 10 21 0 -5
BITMAP
0000
0000
0000
1F80
2400
2400
2400
2400
2400
2780
3C00
2400
2400
2400
2400
2780
0000
0000
0000
0000
0000
ENDCHAR
STARTCHAR U+0043 latin capital letter C
ENCODING 199
SWIDTH 480 0
DWIDTH 10 0
BBX 10 21 0 -5
BITMAP
0000
0000
0000
0E00
1100
2080
2080
2000
2000
2000
2000
2000
2080
2080
1100
0E00
0400
1800
0000
0000
0000
ENDCHAR
STARTCHAR U+0045 latin capital letter E
ENCODING 200
SWIDTH 480 0
DWIDTH 10 0
BBX 10 21 0 -5
BITMAP
0000
1000
0800
0400
0000
3F80
2000
2000
2000
2000
3F00
2000
2000
2000
2000
3F80
0000
0000
0000
0000
0000
ENDCHAR
STARTCHAR U+0045 latin capital letter E
ENCODING 201
SWIDTH 480 0
DWIDTH 10 0
BBX 10 21 0 -5
BITMAP
0000
0100
0200
0400
0000
3F80
2000
2000
2000
2000
3F00
2000
2000
2000
2000
3F80
0000
0000
0000
0000
0000
ENDCHAR
STARTCHAR U+0045 latin capital letter E
ENCODING 202
SWIDTH 480 0
DWIDTH 10 0
BBX 10 21 0 -5
BITMAP
0000
0400
0A00
1100
0000
3F80
2000
2000
2000
2000
3F00
2000
2000
2000
2000
3F80
0000
0000
0000
0000
0000
ENDCHAR
STARTCHAR U+0045 latin capital letter E
ENCODING 203
SWIDTH 480 0
DWIDTH 10 0
BBX 10 21 0 -5
BITMAP
0000
0000
0A00
0A00
0000
3F80
2000
2000
2000
2000
3F00
2000
2000
2000
2000
3F80
0000
0000
0000
0000
0000
ENDCHAR
STARTCHAR U+0049 latin capital letter I
ENCODING 204
SWIDTH 480 0
DWIDTH 10 0
BBX 10 21 0 -5
BITMAP
0000
1000
0800
0400
0000
1F00
0400
0400
0400
0400
0400
0400
0400
0400
0400
1F00
0000
0000
0000
0000
0000
ENDCHAR
STARTCHAR U+0049 latin capital letter I
ENCODING 205
SWIDTH 480 0
DWIDTH 10 0
BBX 10 21 0 -5
BITMAP
0000
0100
0200
0400
0000
1F00
0400
0400
0400
0400
0400
0400
0400
0400
0400
1F00
0000
0000
0000
0000
0000
ENDCHAR
STARTCHAR U+0049 latin capital letter I
ENCODING 206
SWIDTH 480 0
DWIDTH 10 0
BBX 10 21 0 -5
BITMAP
0000
0400
0A00
1100
0000
1F00
0400
0400
0400
0400
0400
0400
0400
0400
0400
1F00
0000
0000
0000
0000
0000
ENDCHAR
STARTCHAR U+0049 latin capital letter I
ENCODING 207
SWIDTH 480 0
DWIDTH 10 0
BBX 10 21 0 -5
BITMAP
0000
0000
0A00
0A00
0000
1F00
0400
0400
0400
0400
0400
0400
0400
0400
0400
1F00
0000
0000
0000
0000
0000
ENDCHAR
STARTCHAR U+0044 latin capital letter D
ENCODING 208
SWIDTH 480 0
DWIDTH 10 0
BBX 10 21 0 -5
BITMAP
0000
0000
0000
3C00
2200
2100
2080
2080
7880
2080
2080
2080
2080
2100
2200
3C00
0000
0000
0000
0000
0000
ENDCHAR
STARTCHAR U+004e latin capital letter N
ENCODING 209
SWIDTH 480 0
DWIDTH 10 0
BBX 10 21 0 -5
BITMAP
0000
1800
2480
0300
0000
2080
3080
3080
2880
2880
2480
2280
2280
2180
2180
2080
0000
0000
0000
0000
0000
ENDCHAR
STARTCHAR U+004f latin capital letter O
ENCODING 210
SWIDTH 480 0
DWIDTH 10 0
BBX 10 21 0 -5
BITMAP
0000
1000
0800
0400
0000
0E00
1100
2080
2080
2080
2080
2080
2080
2080
1100
0E00
0000
0000
0000
0000
0000
ENDCHAR
STARTCHAR U+004f latin capital letter O
ENCODING 211
SWIDTH 480 0
DWIDTH 10 0
BBX 10 21 0 -5
BITMAP
0000
0100
0200
0400
0000
0E00
1100
2080
2080
2080
2080
2080
2080
2080
1100
0E00
0000
0000
0000
0000
0000
ENDCHAR
STARTCHAR U+004f latin capital letter O
ENCODING 212
SWIDTH 480 0
DWIDTH 10 0
BBX 10 21 0 -5
BITMAP
0000
0400
0A00
1100
0000
0E00
1100
2080
2080
2080
2080
2080
2080
2080
1100
0E00
0000
0000
0000
0000
0000
ENDCHAR
STARTCHAR U+004f latin capital letter O
ENCODING 213
SWIDTH 480 0
DWIDTH 10 0
BBX 10 21 0 -5
BITMAP
0000
1800
2480
0300
0000
0E00
1100
2080
2080
2080
2080
2080
2080
2080
1100
0E00
0000
0000
0000
0000
0000
ENDCHAR
STARTCHAR U+004f latin capital letter O
ENCODING 214
SWIDTH 480 0
DWIDTH 10 0
BBX 10 21 0 -5
BITMAP
0000
0000
0A00
0A00
0000
0E00
1100
2080
2080
2080
2080
2080
2080
2080
1100
0E00
0000
0000
0000
0000
0000
ENDCHAR
STARTCHAR U+00d7 multiplication sign
ENCODING 215
SWIDTH 480 0
DWIDTH 10 0
BBX 10 21 0 -5
BITMAP
0000
0000
0000
0000
0000
0000
0000
4080
2100
1200
0C00
0C00
1200
2100
4080
0000
0000
0000
0000
0000
0000
ENDCHAR
STARTCHAR U+004f latin capital letter O
ENCODING 216
SWIDTH 480 0
DWIDTH 10 0
BBX 10 21 0 -5
BITMAP
0000
0000
0000
0E00
1140
2080
2080
2180
2280
2480
2880
3080
2080
2080
5100
0E00
0000
0000
0000
0000
0000
ENDCHAR
STARTCHAR U+0055 latin capital letter U
ENCODING 217
SWIDTH 480 0
DWIDTH 10 0
BBX 10 21 0 -5
BITMAP
0000
1000
0800
0400
0000
2080
2080
2080
2080
2080
2080
2080
2080
2080
1100
0E00
0000
0000
0000
0000
0000
ENDCHAR
STARTCHAR U+0055 latin capital letter U
ENCODING 218
SWIDTH 480 0
DWIDTH 10 0
BBX 10 21 0 -5
BITMAP
0000
0100
0200
0400
0000
2080
2080
2080
2080
2080
2080
2080
2080
2080
1100
0E00
0000
0000
0000
0000
0000
ENDCHAR
STARTCHAR U+0055 latin capital letter U
ENCODING 219
SWIDTH 480 0
DWIDTH 10 0
BBX 10 21 0 -5
BITMAP
0000
0400
0A00
1100
0000
2080
2080
2080
2080
2080
2080
2080
2080
2080
1100
0E00
0000
0000
0000
0000
0000
ENDCHAR
STARTCHAR U+0055 latin capital letter U
ENCODING 220
SWIDTH 480 0
DWIDTH 10 0
BBX 10 21 0 -5
BITMAP
0000
0000
0A00
0A00
0000
2080
2080
2080
2080
2080
2080
2080
2080
2080
1100
0E00
0000
0000
0000
0000
0000
ENDCHAR
STARTCHAR U+0059 latin capital letter Y
ENCODING 221
SWIDTH 480 0
DWIDTH 10 0
BBX 10 21 0 -5
BITMAP
0000
0100
0200
0400
0000
2080
2080
2080
2080
1100
0A00
0400
0400
0400
0400
0400
0000
0000
0000
0000
0000
ENDCHAR
STARTCHAR U+00de latin capital letter Thorn
ENCODING 222
SWIDTH 480 0
DWIDTH 10 0
BBX 10 21 0 -5
BITMAP
0000
0000
0000
0000
2000
2000
3E00
2100
2080
2080
2080
2080
2100
3E00
2000
2000
0000
0000
0000
0000
0000
ENDCHAR
STARTCHAR U+00df latin small letter sharp s
ENCODING 223
SWIDTH 480 0
DWIDTH 10 0
BBX 10 21 0 -5
BITMAP
0000
0000
0000
1C00
2200
2100
2100
2200
2C00
2200
2100
2080
2080
2880
2880
2700
2000
2000
0000
0000
0000
ENDCHAR
STARTCHAR U+0061 latin small letter a
ENCODING 224
SWIDTH 480 0
DWIDTH 10 0
BBX 10 21 0 -5
BITMAP
0000
0000
1000
0800
0400
0000
0000
1F00
0080
0080
1F80
2080
2080
2080
2180
1E80
0000
0000
0000
0000
0000
ENDCHAR
STARTCHAR U+0061 latin small letter a
ENCODING 225
SWIDTH 480 0
DWIDTH 10 0
BBX 10 21 0 -5
BITMAP
0000
0000
0100
0200
0400
0000
0000
1F00
0080
0080
1F80
2080
2080
2080
2180
1E80
0000
0000
0000
0000
0000
ENDCHAR
STARTCHAR U+0061 latin small letter a
ENCODING 226
SWIDTH 480 0
DWIDTH 10 0
BBX 10 21 0 -5
BITMAP
0000
0000
0400
0A00
1100
0000
0000
1F00
0080
0080
1F80
2080
2080
2080
2180
1E80
0000
0000
0000
0000
0000
ENDCHAR
STARTCHAR U+0061 latin small letter a
ENCODING 227
SWIDTH 480 0
DWIDTH 10 0
BBX 10 21 0 -5
BITMAP
0000
0000
1800
2480
0300
0000
0000
1F00
0080
0080
1F80
2080
2080
2080
2180
1E80
0000
0000
0000
0000
0000
ENDCHAR
STARTCHAR U+0061 latin small letter a
ENCODING 228
SWIDTH 480 0
DWIDTH 10 0
BBX 10 21 0 -5
BITMAP
0000
0000
0000
0A00
0A00
0000
0000
1F00
0080
0080
1F80
2080
2080
2080
2180
1E80
0000
0000
0000
0000
0000
ENDCHAR
STARTCHAR U+0061 latin small letter a
ENCODING 229
SWIDTH 480 0
DWIDTH 10 0
BBX 10 21 0 -5
BITMAP
0000
0000
0000
0400
0A00
0400
0000
1F00
0080
0080
1F80
2080
2080
2080
2180
1E80
0000
0000
0000
0000
0000
ENDCHAR
STARTCHAR U+00e6 latin small ligature ae
ENCODING 230
SWIDTH 480 0
DWIDTH 10 0
BBX 10 21 0 -5
BITMAP
0000
0000
0000
0000
0000
0000
0000
3B00
0480
0480
1C80
2780
2400
2400
2480
1B00
0000
0000
0000
0000
0000
ENDCHAR
STARTCHAR U+0063 latin small letter c
ENCODING 231
SWIDTH 480 0
DWIDTH 10 0
BBX 10 21 0 -5
BITMAP
0000
0000
0000
0000
0000
0000
0000
0E00
1100
2080
2000
2000
2000
2080
1100
0E00
0400
1800
0000
0000
0000
ENDCHAR
STARTCHAR U+0065 latin small letter e
ENCODING 232
SWIDTH 480 0
DWIDTH 10 0
BBX 10 21 0 -5
BITMAP
0000
0000
1000
0800
0400
0000
0000
0E00
1100
2080
2080
3F80
2000
2000
1080
0F00
0000
0000
0000
0000
0000
ENDCHAR
STARTCHAR U+0065 latin small letter e
ENCODING 233
SWIDTH 480 0
DWIDTH 10 0
BBX 10 21 0 -5
BITMAP
0000
0000
0100
0200
0400
0000
0000
0E00
1100
2080
2080
3F80
2000
2000
1080
0F00
0000
0000
0000
0000
0000
ENDCHAR
STARTCHAR U+0065 latin small letter e
ENCODING 234
SWIDTH 480 0
DWIDTH 10 0
BBX 10 21 0 -5
BITMAP
0000
0000
0400
0A00
1100
0000
0000
0E00
1100
2080
2080
3F80
2000
2000
1080
0F00
0000
0000
0000
0000
0000
ENDCHAR
STARTCHAR U+0065 latin small letter e
ENCODING 235
SWIDTH 480 0
DWIDTH 10 0
BBX 10 21 0 -5
BITMAP
0000
0000
0000
0A00
0A00
0000
0000
0E00
1100
2080
2080
3F80
2000
2000
1080
0F00
0000
0000
0000
0000
0000
ENDCHAR
STARTCHAR U+0069 latin small letter i
ENCODING 236
SWIDTH 480 0
DWIDTH 10 0
BBX 10 21 0 -5
BITMAP
0000
0000
1000
0800
0400
0000
0000
1C00
0400
0400
0400
0400
0400
0400
0400
0400
0000
0000
0000
0000
0000
ENDCHAR
STARTCHAR U+0069 latin small letter i
ENCODING 237
SWIDTH 480 0
DWIDTH 10 0
BBX 10 21 0 -5
BITMAP
0000
0000
0100
0200
0400
0000
0000
1C00
0400
0400
0400
0400
0400
0400
0400
0400
0000
0000
0000
0000
0000
ENDCHAR
STARTCHAR U+0069 latin small letter i
ENCODING 238
SWIDTH 480 0
DWIDTH 10 0
BBX 10 21 0 -5
BITMAP
0000
0000
0400
0A00
1100
0000
0000
1C00
0400
0400
0400
0400
0400
0400
0400
0400
0000
0000
0000
0000
0000
ENDCHAR
STARTCHAR U+0069 latin small letter i
ENCODING 239
SWIDTH 480 0
DWIDTH 10 0
BBX 10 21 0 -5
BITMAP
0000
0000
0000
0A00
0A00
0000
0000
1C00
0400
0400
0400
0400
0400
0400
0400
0400
0000
0000
0000
0000
0000
ENDCHAR
STARTCHAR U+00f0 latin small letter eth
ENCODING 240
SWIDTH 480 0
DWIDTH 10 0
BBX 10 21 0 -5
BITMAP
0000
0000
0000
2000
1600
0800
3400
0200
0100
1F00
2080
2080
2080
2080
2080
1F00
0000
0000
0000
0000
0000
ENDCHAR
STARTCHAR U+006e latin small letter n
ENCODING 241
SWIDTH 480 0
DWIDTH 10 0
BBX 10 21 0 -5
BITMAP
0000
0000
1800
2480
0300
0000
0000
2E00
3100
2080
2080
2080
2080
2080
2080
2080
0000
0000
0000
0000
0000
ENDCHAR
STARTCHAR U+006f latin small letter o
ENCODING 242
SWIDTH 480 0
DWIDTH 10 0
BBX 10 21 0 -5
BITMAP
0000
0000
1000
0800
0400
0000
0000
0E00
1100
2080
2080
2080
2080
2080
1100
0E00
0000
0000
0000
0000
0000
ENDCHAR
STARTCHAR U+006f latin small letter o
ENCODING 243
SWIDTH 480 0
DWIDTH 10 0
BBX 10 21 0 -5
BITMAP
0000
0000
0100
0200
0400
0000
0000
0E00
1100
2080
2080
2080
2080
2080
1100
0E00
0000
0000
0000
0000
0000
ENDCHAR
STARTCHAR U+006f latin small letter o
ENCODING 244
SWIDTH 480 0
DWIDTH 10 0
BBX 10 21 0 -5
BITMAP
0000
0000
0400
0A00
1100
0000
0000
0E00
1100
2080
2080
2080
2080
2080
1100
0E00
0000
0000
0000
0000
0000
ENDCHAR
STARTCHAR U+006f latin small letter o
ENCODING 245
SWIDTH 480 0
DWIDTH 10 0
BBX 10 21 0 -5
BITMAP
0000
0000
1800
2480
0300
0000
0000
0E00
1100
2080
2080
2080
2080
2080
1100
0E00
0000
0000
0000
0000
0000
ENDCHAR
STARTCHAR U+006f latin small letter o
ENCODING 246
SWIDTH 480 0
DWIDTH 10 0
BBX 10 21 0 -5
BITMAP
0000
0000
0000
0A00
0A00
0000
0000
0E00
1100
2080
2080
2080
2080
2080
1100
0E00
0000
0000
0000
0000
0000
ENDCHAR
STARTCHAR U+00f7 division sign
ENCODING 247
SWIDTH 480 0
DWIDTH 10 0
BBX 10 21 0 -5
BITMAP
0000
0000
0000
0000
0000
0000
0400
0400
0400
0000
7FC0
0000
0400
0400
0400
0000
0000
0000
0000
0000
0000
ENDCHAR
STARTCHAR U+006f latin small letter o
ENCODING 248
SWIDTH 480 0
DWIDTH 10 0
BBX 10 21 0 -5
BITMAP
0000
0000
0000
0000
0000
0000
0000
0E80
1100
2280
2280
2480
2880
2880
1100
2E00
0000
0000
0000
0000
0000
ENDCHAR
STARTCHAR U+0075 latin small letter u
ENCODING 249
SWIDTH 480 0
DWIDTH 10 0
BBX 10 21 0 -5
BITMAP
0000
0000
1000
0800
0400
0000
0000
2080
2080
2080
2080
2080
2080
2080
1180
0E80
0000
0000
0000
0000
0000
ENDCHAR
STARTCHAR U+0075 latin small letter u
ENCODING 250
SWIDTH 480 0
DWIDTH 10 0
BBX 10 21 0 -5
BITMAP
0000
0000
0100
0200
0400
0000
0000
2080
2080
2080
2080
2080
2080
2080
1180
0E80
0000
0000
0000
0000
0000
ENDCHAR
STARTCHAR U+0075 latin small letter u
ENCODING 251
SWIDTH 480 0
DWIDTH 10 0
BBX 10 21 0 -5
BITMAP
0000
0000
0400
0A00
1100
0000
0000
2080
2080
2080
2080
2080
2080
2080
1180
0E80
0000
0000
0000
0000
0000
ENDCHAR
STARTCHAR U+0075 latin small letter u
ENCODING 252
SWIDTH 480 0
DWIDTH 10 0
BBX 10 21 0 -5
BITMAP
0000
0000
0000
0A00
0A00
0000
0000
2080
2080
2080
2080
2080
2080
2080
1180
0E80
0000
0000
0000
0000
0000
ENDCHAR
STARTCHAR U+0079 latin small letter y
ENCODING 253
SWIDTH 480 0
DWIDTH 10 0
BBX 10 21 0 -5
BITMAP
0000
0000
0000
0100
0200
0400
0000
2080
2080
2080
2080
2080
1180
0E80
0080
0080
0080
0080
2100
1E00
0000
ENDCHAR
STARTCHAR U+00fe latin small letter thorn
ENCODING 254
SWIDTH 480 0
DWIDTH 10 0
BBX 10 21 0 -5
BITMAP
0000
0000
0000
0000
2000
2000
2000
2E00
3100
2080
2080
2080
2080
2080
3100
2E00
2000
2000
2000
2000
0000
ENDCHAR
STARTCHAR U+0079 latin small letter y
ENCODING 255
SWIDTH 480 0
DWIDTH 10 0
BBX 10 21 0 -5
BITMAP
0000
0000
0000
0000
0A00
0A00
0000
2080
2080
2080
2080
2080
1180
0E80
0080
0080
0080
0080
2100
1E00
0000
ENDCHAR
ENDFONT
